<?xml version="1.0" encoding="iso-8859-1"?>
<!-- Generator: Adobe Illustrator 18.1.1, SVG Export Plug-In . SVG Version: 6.00 Build 0)  -->
<svg version="1.1" id="Capa_1" xmlns="http://www.w3.org/2000/svg" xmlns:xlink="http://www.w3.org/1999/xlink" x="0px" y="0px"
	 viewBox="0 0 32 32" style="enable-background:new 0 0 32 32;" xml:space="preserve">
<g>
	<g id="heart_x5F_stroke">
		<g>
			<path style="fill:#030104;" d="M23.113,6c2.457,0,4.492,1.82,4.836,4.188L16.004,23.906L4.051,10.188C4.395,7.82,6.43,6,8.887,6
				c2.016,0,3.855,2.164,3.855,2.164L16,11.625l3.258-3.461C19.258,8.164,21.098,6,23.113,6 M23.113,2
				c-2.984,0-5.5,1.578-7.113,3.844C14.387,3.578,11.871,2,8.887,2C3.984,2,0,5.992,0,10.891v0.734L16.008,30L32,11.625v-0.734
				C32,5.992,28.016,2,23.113,2L23.113,2z"/>
		</g>
	</g>
</g>
<g>
</g>
<g>
</g>
<g>
</g>
<g>
</g>
<g>
</g>
<g>
</g>
<g>
</g>
<g>
</g>
<g>
</g>
<g>
</g>
<g>
</g>
<g>
</g>
<g>
</g>
<g>
</g>
<g>
</g>
</svg>
