<?xml version='1.0' encoding='utf-8'?>
<!DOCTYPE svg PUBLIC '-//W3C//DTD SVG 1.1//EN' 'http://www.w3.org/Graphics/SVG/1.1/DTD/svg11.dtd'>
<svg version="1.1" xmlns="http://www.w3.org/2000/svg" viewBox="0 0 512 512" xmlns:xlink="http://www.w3.org/1999/xlink" enable-background="new 0 0 512 512">
  <g>
    <g>
      <path d="m363.5,11c-42.5,0-81.8,19.5-107.5,51.7-25.7-32.2-65-51.7-107.5-51.7-75.8,0-137.5,61.7-137.5,137.5 0,27.3 12.5,61.7 38.3,105.2 19.3,32.6 46.1,70.2 79.7,111.8 56.7,70.3 114.3,128.8 114.8,129.4 4,4.1 9.3,6.1 14.6,6.1 5.2,0 10.3-1.9 14.3-5.8 2.3-2.2 57-55.8 112.6-124.5 76.8-94.7 115.7-169.5 115.7-222.2 0-75.8-61.7-137.5-137.5-137.5zm64.6,227.8c-17.8,31.3-42.8,66.9-74.3,105.8-37.3,46.1-75.1,86.1-95.1,106.5-20.3-21.4-59.2-63.6-97.8-111.4-94.7-117.4-108.9-170.2-108.9-191.2 0-53.2 43.3-96.5 96.5-96.5 38.6,0 73.4,22.9 88.7,58.4 3.2,7.5 10.6,12.4 18.8,12.4s15.6-4.9 18.8-12.4c15.3-35.5 50.1-58.4 88.7-58.4 53.2,0 96.5,43.3 96.5,96.5 0,22.7-10.7,53.1-31.9,90.3z"/>
      <path d="m148.5,76c-40,0-72.5,32.5-72.5,72.5 0,5.7 2.5,22.4 21.1,57.8 7.5,14.3 24.7,9.9 27.8,8.2 10-5.4 13.6-17.8 8.2-27.8-13.8-25.3-15.9-37-16.1-38.8 0.3-17.1 14.3-30.9 31.5-30.9 11.3,0 20.5-9.2 20.5-20.5s-9.2-20.5-20.5-20.5z"/>
    </g>
  </g>
</svg>
