<?xml version="1.0" encoding="utf-8"?>
<!-- Generator: Adobe Illustrator 21.0.0, SVG Export Plug-In . SVG Version: 6.00 Build 0)  -->
<svg version="1.1" xmlns="http://www.w3.org/2000/svg" xmlns:xlink="http://www.w3.org/1999/xlink" x="0px" y="0px"
	 viewBox="0 0 512 512" style="enable-background:new 0 0 512 512;" xml:space="preserve">
<style type="text/css">
	.st0{fill:#01A0C6;}
	.st1{fill:#FF0000;}
</style>
<g id="Layer_4">
	<rect x="67" y="210.8" class="st0" width="97.1" height="285.5"/>
	<path class="st0" d="M191.6,226.7v234.8h222.5c0,0,60.9-19.6,32.6-68.1c0,0,66.8-21.9,26.8-69.2c0,0,67.7-27.4,10.1-77.2
		c0,0,52.3-53.6-16.6-79H337.3c0,0,26.8-167.4-81.9-137.7l2.2,76.1C257.6,106.4,242.3,144.1,191.6,226.7z"/>
</g>
<g id="Layer_3">
	<rect x="24.5" y="207" class="st1" width="97.1" height="285.5"/>
	<path class="st1" d="M149.2,222.9v234.8h222.5c0,0,60.9-19.6,32.6-68.1c0,0,66.8-21.9,26.8-69.2c0,0,67.7-27.4,10.1-77.2
		c0,0,52.3-53.6-16.6-79H294.8c0,0,26.8-167.4-81.9-137.7l2.2,76.1C215.1,102.6,199.9,140.3,149.2,222.9z"/>
</g>
<g id="Layer_2">
	<rect x="42.2" y="207" width="97.1" height="285.5"/>
	<path d="M166.8,222.9v234.8h222.5c0,0,60.9-19.6,32.6-68.1c0,0,66.8-21.9,26.8-69.2c0,0,67.7-27.4,10.1-77.2c0,0,52.3-53.6-16.6-79
		H312.5c0,0,26.8-167.4-81.9-137.7l2.2,76.1C232.8,102.6,217.6,140.3,166.8,222.9z"/>
</g>
</svg>
