<?xml version="1.0" encoding="UTF-8" standalone="no"?> <svg width="64" height="64" viewBox="0 0 64 64" fill="none" xmlns="http://www.w3.org/2000/svg">
<path d="M52 45.88V61H12V45.88C11.9986 44.1761 12.5424 42.5164 13.5517 41.1435C14.5611 39.7707 15.9831 38.7568 17.61 38.25L20.21 37.44L25 35.94L28 35L32 37L36 35L39 35.94L43.79 37.44L46.39 38.25C48.0168 38.7568 49.4389 39.7707 50.4482 41.1435C51.4576 42.5164 52.0013 44.1761 52 45.88Z" fill="#C49A6C"/>
<path d="M36 29V35L32 37L28 35V29H36Z" fill="#FFC477"/>
<path d="M46 18C46 18.7956 45.6839 19.5587 45.1213 20.1213C44.5587 20.6839 43.7956 21 43 21H41V15H43C43.7956 15 44.5587 15.3161 45.1213 15.8787C45.6839 16.4413 46 17.2044 46 18Z" fill="#FFB655"/>
<path d="M23 15V21H21C20.2044 21 19.4413 20.6839 18.8787 20.1213C18.3161 19.5587 18 18.7956 18 18C18 17.2044 18.3161 16.4413 18.8787 15.8787C19.4413 15.3161 20.2044 15 21 15H23Z" fill="#FFB655"/>
<path d="M44 41.1V39C44.0017 38.4728 43.9311 37.9479 43.79 37.44C43.4471 36.1664 42.6941 35.0413 41.6475 34.2388C40.6008 33.4362 39.3189 33.0008 38 33H36V35L39 35.94V42L38 41.29V61H44V52.49C44.001 51.7006 43.846 50.9188 43.544 50.1894C43.242 49.4601 42.7988 48.7976 42.24 48.24L41 47L41.95 46.05C42.6 45.3999 43.1156 44.6282 43.4673 43.7789C43.8191 42.9296 44.0001 42.0193 44 41.1V41.1Z" fill="#A97C50"/>
<path d="M36 29V32.16C34.7392 32.7139 33.3771 33 32 33C30.6229 33 29.2608 32.7139 28 32.16V29H36Z" fill="#FFB655"/>
<path d="M42 14V21C42 23.6522 40.9464 26.1957 39.0711 28.0711C37.1957 29.9464 34.6522 31 32 31C29.3478 31 26.8043 29.9464 24.9289 28.0711C23.0536 26.1957 22 23.6522 22 21V14C23.0609 14 24.0783 13.5786 24.8284 12.8284C25.5786 12.0783 26 11.0609 26 10V7.24001C26.0002 7.08248 26.0378 6.92726 26.1098 6.78716C26.1818 6.64706 26.2861 6.52609 26.4141 6.43426C26.5421 6.34243 26.6901 6.28236 26.8458 6.25901C27.0016 6.23567 27.1607 6.24972 27.31 6.30001C28.8279 6.77351 30.4099 7.00963 32 7.00001C33.5901 7.00963 35.1721 6.77351 36.69 6.30001C36.8393 6.24972 36.9984 6.23567 37.1542 6.25901C37.3099 6.28236 37.4579 6.34243 37.5859 6.43426C37.7139 6.52609 37.8182 6.64706 37.8902 6.78716C37.9622 6.92726 37.9998 7.08248 38 7.24001V10C38 11.0609 38.4214 12.0783 39.1716 12.8284C39.9217 13.5786 40.9391 14 42 14Z" fill="#FFC477"/>
<path d="M42 9V14C40.9391 14 39.9217 13.5786 39.1716 12.8284C38.4214 12.0783 38 11.0609 38 10V7.24C37.9998 7.08248 37.9622 6.92726 37.8902 6.78716C37.8182 6.64705 37.7139 6.52609 37.5859 6.43425C37.4579 6.34242 37.3099 6.28235 37.1542 6.25901C36.9984 6.23566 36.8393 6.24971 36.69 6.3C35.1721 6.7735 33.5901 7.00962 32 7C30.4099 7.00962 28.8279 6.7735 27.31 6.3C27.1607 6.24971 27.0016 6.23566 26.8458 6.25901C26.6901 6.28235 26.5421 6.34242 26.4141 6.43425C26.2861 6.52609 26.1818 6.64705 26.1098 6.78716C26.0378 6.92726 26.0002 7.08248 26 7.24V10C26 11.0609 25.5786 12.0783 24.8284 12.8284C24.0783 13.5786 23.0609 14 22 14V9C22 7.4087 22.6321 5.88258 23.7574 4.75736C24.8826 3.63214 26.4087 3 28 3H36C37.5913 3 39.1174 3.63214 40.2426 4.75736C41.3679 5.88258 42 7.4087 42 9Z" fill="#57565C"/>
<path d="M38 41.29L34.95 39.11L35 39H34.8L32 37L36 35L39 35.94V42L38 41.29Z" fill="#C6C5CA"/>
<path d="M38 41.29V61H35L33 43L34.95 39.11L38 41.29Z" fill="#E6E7E8"/>
<path d="M36 19C37.1046 19 38 18.1046 38 17C38 15.8954 37.1046 15 36 15C34.8954 15 34 15.8954 34 17C34 18.1046 34.8954 19 36 19Z" fill="#E6E7E8"/>
<path d="M35 39L34.95 39.11L34.8 39H35Z" fill="#BDDBFF"/>
<path d="M33 43L35 61H29L31 43H33Z" fill="#787680"/>
<path d="M34.8 39L32 37L29.2 39L29.05 39.11L31 43H33L34.95 39.11L34.8 39Z" fill="#57565C"/>
<path d="M26 41.29L25 42V35.94L28 35L32 37L29.2 39H29L29.05 39.11L26 41.29Z" fill="#C6C5CA"/>
<path d="M29.05 39.11L31 43L29 61H26V41.29L29.05 39.11Z" fill="#E6E7E8"/>
<path d="M28 19C29.1046 19 30 18.1046 30 17C30 15.8954 29.1046 15 28 15C26.8954 15 26 15.8954 26 17C26 18.1046 26.8954 19 28 19Z" fill="#E6E7E8"/>
<path d="M29.2 39L29.05 39.11L29 39H29.2Z" fill="#BDDBFF"/>
<path d="M28 35V33H26C24.681 33.0008 23.3991 33.4362 22.3525 34.2388C21.3059 35.0413 20.5529 36.1664 20.21 37.44C20.0689 37.9479 19.9982 38.4728 20 39V41.1C19.9999 42.0193 20.1809 42.9296 20.5326 43.7789C20.8844 44.6282 21.4 45.3999 22.05 46.05L23 47L21.76 48.24C21.2012 48.7976 20.758 49.4601 20.456 50.1894C20.1539 50.9188 19.999 51.7006 20 52.49V61H26V41.29L25 42V35.94L28 35Z" fill="#A97C50"/>
<path d="M40.22 26.69C39.8808 27.185 39.4957 27.6471 39.07 28.07C38.0342 29.1051 36.7837 29.9002 35.4069 30.3989C34.0301 30.8976 32.5606 31.0879 31.1022 30.9563C29.6438 30.8246 28.2321 30.3743 26.9668 29.6371C25.7016 28.8999 24.6137 27.8939 23.78 26.69C22.9955 25.5712 22.4539 24.3007 22.19 22.96L30.04 21.39C31.3337 21.13 32.6662 21.13 33.96 21.39L41.81 22.96C41.5461 24.3007 41.0044 25.5712 40.22 26.69V26.69Z" fill="#44FFE8"/>
<path d="M46.69 37.29L44.58 36.64C44.0942 35.2834 43.2015 34.1097 42.0239 33.2793C40.8462 32.4489 39.441 32.0021 38 32H37V30.79C38.6511 29.9437 40.062 28.6944 41.1021 27.1579C42.1421 25.6215 42.7777 23.8474 42.95 22H43C44.0609 22 45.0783 21.5786 45.8284 20.8284C46.5786 20.0783 47 19.0609 47 18C47 16.9391 46.5786 15.9217 45.8284 15.1716C45.0783 14.4214 44.0609 14 43 14V9C42.9979 7.14413 42.2597 5.36489 40.9474 4.05259C39.6351 2.7403 37.8559 2.00212 36 2H28C26.1441 2.00212 24.3649 2.7403 23.0526 4.05259C21.7403 5.36489 21.0021 7.14413 21 9V14C19.9391 14 18.9217 14.4214 18.1716 15.1716C17.4214 15.9217 17 16.9391 17 18C17 19.0609 17.4214 20.0783 18.1716 20.8284C18.9217 21.5786 19.9391 22 21 22H21.05C21.2222 23.8474 21.8578 25.6215 22.8979 27.1579C23.9379 28.6944 25.3489 29.9437 27 30.79V32H26C24.559 32.0021 23.1538 32.4489 21.9761 33.2793C20.7985 34.1097 19.9058 35.2834 19.42 36.64L17.31 37.29C15.4773 37.8579 13.8753 38.9989 12.7394 40.5452C11.6036 42.0914 10.9939 43.9614 11 45.88V61C11 61.2652 11.1053 61.5196 11.2929 61.7071C11.4804 61.8946 11.7348 62 12 62H52C52.2652 62 52.5196 61.8946 52.7071 61.7071C52.8946 61.5196 53 61.2652 53 61V45.88C53.0061 43.9614 52.3964 42.0914 51.2606 40.5452C50.1247 38.9989 48.5226 37.8579 46.69 37.29V37.29ZM43 16C43.5299 16.0016 44.0377 16.2128 44.4124 16.5875C44.7872 16.9623 44.9984 17.4701 45 18C44.9961 18.5292 44.7841 19.0357 44.4099 19.4099C44.0356 19.7841 43.5292 19.9961 43 20V16ZM21 20C20.4708 19.9961 19.9643 19.7841 19.5901 19.4099C19.2159 19.0357 19.0039 18.5292 19 18C19.0016 17.4701 19.2128 16.9623 19.5875 16.5875C19.9622 16.2128 20.47 16.0016 21 16V20ZM23 9C23 7.67392 23.5268 6.40215 24.4645 5.46447C25.4021 4.52678 26.6739 4 28 4H36C36.6566 4 37.3068 4.12933 37.9134 4.3806C38.52 4.63188 39.0712 5.00017 39.5355 5.46447C39.9998 5.92876 40.3681 6.47995 40.6194 7.08658C40.8707 7.69321 41 8.34339 41 9V12.82C40.4172 12.6124 39.9126 12.2304 39.5547 11.7258C39.1969 11.2212 39.0032 10.6186 39 10V7.24C39.0004 6.92838 38.9273 6.62106 38.7865 6.34304C38.6458 6.06502 38.4414 5.82414 38.19 5.64C37.9327 5.45191 37.6345 5.32755 37.3199 5.27714C37.0052 5.22673 36.6831 5.2517 36.38 5.35C33.5218 6.20002 30.4781 6.20002 27.62 5.35C27.3169 5.2517 26.9947 5.22673 26.6801 5.27714C26.3654 5.32755 26.0672 5.45191 25.81 5.64C25.5586 5.82414 25.3542 6.06502 25.2135 6.34304C25.0727 6.62106 24.9996 6.92838 25 7.24V10C24.9968 10.6186 24.8031 11.2212 24.4452 11.7258C24.0874 12.2304 23.5827 12.6124 23 12.82V9ZM36 14C35.2595 14.0019 34.5463 14.2801 34 14.78C33.4547 14.2784 32.7409 14 32 14C31.2591 14 30.5452 14.2784 30 14.78C29.6666 14.4741 29.2677 14.2485 28.8337 14.1206C28.3997 13.9927 27.9422 13.9659 27.4963 14.0422C27.0503 14.1184 26.6277 14.2957 26.2609 14.5606C25.8941 14.8254 25.5927 15.1707 25.38 15.57L23.64 14.7C24.6187 14.3624 25.468 13.7285 26.0701 12.8863C26.6722 12.044 26.9972 11.0353 27 10L27.01 7.25C30.2674 8.23672 33.7446 8.23324 37 7.24V10C37.0028 11.0353 37.3278 12.044 37.9299 12.8863C38.532 13.7285 39.3813 14.3624 40.36 14.7L38.62 15.57C38.3644 15.0972 37.9862 14.702 37.5252 14.4258C37.0643 14.1495 36.5374 14.0025 36 14ZM37 17C37 17.1978 36.9413 17.3911 36.8315 17.5556C36.7216 17.72 36.5654 17.8482 36.3827 17.9239C36.1999 17.9996 35.9989 18.0194 35.8049 17.9808C35.6109 17.9422 35.4327 17.847 35.2929 17.7071C35.153 17.5673 35.0578 17.3891 35.0192 17.1951C34.9806 17.0011 35.0004 16.8 35.0761 16.6173C35.1518 16.4346 35.28 16.2784 35.4444 16.1685C35.6089 16.0586 35.8022 16 36 16C36.2652 16 36.5196 16.1054 36.7071 16.2929C36.8946 16.4804 37 16.7348 37 17ZM29 17C29 17.1978 28.9413 17.3911 28.8315 17.5556C28.7216 17.72 28.5654 17.8482 28.3827 17.9239C28.1999 17.9996 27.9989 18.0194 27.8049 17.9808C27.6109 17.9422 27.4327 17.847 27.2929 17.7071C27.153 17.5673 27.0578 17.3891 27.0192 17.1951C26.9806 17.0011 27.0004 16.8 27.0761 16.6173C27.1518 16.4346 27.28 16.2784 27.4444 16.1685C27.6089 16.0586 27.8022 16 28 16C28.2652 16 28.5196 16.1054 28.7071 16.2929C28.8946 16.4804 29 16.7348 29 17ZM23 21V16.62L25.08 17.66C25.2481 18.3738 25.6718 19.0013 26.2711 19.424C26.8704 19.8466 27.6037 20.0351 28.3325 19.9539C29.0613 19.8726 29.7351 19.5272 30.2266 18.983C30.7181 18.4387 30.9932 17.7333 31 17C31 16.7348 31.1053 16.4804 31.2929 16.2929C31.4804 16.1054 31.7348 16 32 16C32.2652 16 32.5196 16.1054 32.7071 16.2929C32.8946 16.4804 33 16.7348 33 17C33.0067 17.7333 33.2819 18.4387 33.7733 18.983C34.2648 19.5272 34.9386 19.8726 35.6675 19.9539C36.3963 20.0351 37.1296 19.8466 37.7289 19.424C38.3282 19.0013 38.7519 18.3738 38.92 17.66L41 16.62V21C41 21.26 40.98 21.52 40.96 21.77L34.16 20.41C32.7336 20.13 31.2664 20.13 29.84 20.41L23.04 21.77C23.02 21.52 23 21.26 23 21ZM25.77 27.48L30.11 26.99L29.89 25.01L24.29 25.63C23.933 25.0309 23.6445 24.3936 23.43 23.73L30.24 22.37C31.402 22.14 32.5979 22.14 33.76 22.37L40.57 23.73C40.3555 24.3936 40.067 25.0309 39.71 25.63L34.11 25.01L33.89 26.99L38.23 27.48C36.5589 29.0964 34.3249 30 32 30C29.675 30 27.4411 29.0964 25.77 27.48V27.48ZM32 35.88L29 34.38V31.57C30.9589 32.1433 33.0411 32.1433 35 31.57V34.38L32 35.88ZM33.67 39.43L32.38 42H31.62L30.33 39.43L32 38.23L33.67 39.43ZM19 52.49V60H13V45.88C12.9933 44.3883 13.4672 42.934 14.3515 41.7327C15.2359 40.5314 16.4836 39.6468 17.91 39.21L19.01 38.86C19.01 38.91 19 38.95 19 39V41.1C19.0038 43.2213 19.8447 45.2553 21.34 46.76L21.59 47L21.05 47.53C20.3988 48.1812 19.8825 48.9546 19.5307 49.8057C19.179 50.6569 18.9986 51.569 19 52.49ZM24.54 42.89C24.6832 42.9605 24.8404 42.998 25 43V60H21V52.49C20.9971 51.8318 21.1256 51.1796 21.378 50.5718C21.6305 49.9639 22.0017 49.4125 22.47 48.95L23.71 47.71C23.8973 47.5212 24.0025 47.266 24.0025 47C24.0025 46.734 23.8973 46.4788 23.71 46.29L22.76 45.34C21.6356 44.2151 21.0027 42.6905 21 41.1V39C21 37.6739 21.5268 36.4021 22.4645 35.4645C23.4021 34.5268 24.6739 34 26 34H27V34.27L24.7 34.99C24.4965 35.0518 24.3185 35.1777 24.1924 35.3489C24.0662 35.52 23.9988 35.7274 24 35.94V42C24.0005 42.1834 24.051 42.3633 24.1462 42.5201C24.2414 42.6769 24.3775 42.8048 24.54 42.89V42.89ZM28.1 60H27V41.8L28.68 40.6L29.97 43.18L28.1 60ZM26 40.06V36.67L27.91 36.08L30.07 37.15L26 40.06ZM30.12 60L31.9 44H32.1L33.88 60H30.12ZM37 60H35.9L34.03 43.18L35.32 40.6L37 41.8V60ZM38 40.06L33.93 37.15L36.09 36.08L38 36.67V40.06ZM43 60H39V43C39.1596 42.998 39.3168 42.9605 39.46 42.89C39.6225 42.8048 39.7586 42.6769 39.8538 42.5201C39.9489 42.3633 39.9995 42.1834 40 42V35.94C40.0012 35.7274 39.9337 35.52 39.8076 35.3489C39.6815 35.1777 39.5034 35.0518 39.3 34.99L37 34.27V34H38C39.3261 34 40.5978 34.5268 41.5355 35.4645C42.4732 36.4021 43 37.6739 43 39V41.1C42.9973 42.6905 42.3644 44.2151 41.24 45.34L40.29 46.29C40.1026 46.4788 39.9975 46.734 39.9975 47C39.9975 47.266 40.1026 47.5212 40.29 47.71L41.53 48.95C41.9983 49.4125 42.3695 49.9639 42.6219 50.5718C42.8744 51.1796 43.0029 51.8318 43 52.49V60ZM51 60H45V52.49C45.0014 51.569 44.821 50.6569 44.4692 49.8057C44.1174 48.9546 43.6012 48.1812 42.95 47.53L42.41 47L42.66 46.76C44.1553 45.2553 44.9962 43.2213 45 41.1V39C45 38.95 44.99 38.91 44.99 38.86L46.09 39.21C47.5163 39.6468 48.7641 40.5314 49.6485 41.7327C50.5328 42.934 51.0067 44.3883 51 45.88V60Z" fill="black"/>
</svg>
