<?xml version="1.0" encoding="UTF-8" standalone="no"?> <svg width="512" height="512" viewBox="0 0 512 512" fill="none" xmlns="http://www.w3.org/2000/svg">
<path d="M354.861 129.732L355.943 140.232C361.949 148.57 365.506 158.42 366.213 168.672C366.92 178.924 364.748 189.169 359.943 198.252V198.252L364.276 202.9C369.876 208.907 373.284 216.628 373.949 224.813C374.615 232.998 372.499 241.168 367.943 248L370.455 258.048C372.13 264.743 372.042 271.757 370.201 278.408C368.36 285.059 364.827 291.12 359.948 296V296L358.267 301.043C356.306 306.929 353 312.278 348.613 316.665C344.226 321.052 338.878 324.357 332.992 326.319L327.948 328L323.812 334.2C320.163 339.675 315.219 344.164 309.418 347.27C303.617 350.375 297.14 352 290.56 352H221.388C214.809 352 208.331 350.375 202.53 347.27C196.73 344.164 191.785 339.675 188.136 334.2L184 328L178.957 326.319C173.071 324.357 167.723 321.052 163.336 316.665C158.949 312.278 155.643 306.929 153.681 301.043L152 296C147.12 291.12 143.587 285.06 141.745 278.409C139.903 271.758 139.814 264.743 141.488 258.048L144 248C139.445 241.168 137.329 232.998 137.994 224.813C138.66 216.628 142.068 208.907 147.667 202.9L152 198.253C147.196 189.169 145.025 178.924 145.733 168.672C146.441 158.42 149.999 148.571 156.006 140.233L157.087 129.733L354.861 129.732Z" fill="#8F5528"/>
<path d="M240 416H272C280.487 416 288.626 412.629 294.627 406.627C300.629 400.626 304 392.487 304 384V383.038C293.693 372.096 287.951 357.632 287.948 342.6V312H223.948V342.6C223.945 357.58 218.243 371.998 208 382.928V384C208 392.487 211.371 400.626 217.373 406.627C223.374 412.629 231.513 416 240 416Z" fill="#FDC9A6"/>
<path d="M287.95 312V340.61L277.74 347.9C274.01 350.569 269.537 352.002 264.95 352H247.05C242.463 352.002 237.991 350.569 234.26 347.9L223.95 340.53V312H287.95Z" fill="#F6BB92"/>
<path d="M316.593 393.187C311.949 390.399 307.712 386.984 304 383.038V384C304 392.487 300.629 400.626 294.628 406.627C288.627 412.629 280.487 416 272 416H240C231.513 416 223.374 412.629 217.373 406.627C211.372 400.626 208 392.487 208 384V382.928C204.263 386.92 199.989 390.373 195.3 393.187V393.187C179.637 402.584 166.675 415.878 157.675 431.772C148.675 447.667 143.945 465.621 143.944 483.887V488H367.944V483.89C367.945 465.624 363.216 447.67 354.217 431.774C345.218 415.879 332.256 402.585 316.593 393.187V393.187Z" fill="#EA2B2D"/>
<path d="M328 170.253H332C339.426 170.253 346.548 173.203 351.799 178.454C357.05 183.705 360 190.827 360 198.253V198.253C360 205.679 357.05 212.801 351.799 218.052C346.548 223.303 339.426 226.253 332 226.253H328V170.253Z" fill="#F6BB92"/>
<path d="M184 226.252H180C172.574 226.252 165.452 223.302 160.201 218.051C154.95 212.8 152 205.678 152 198.252V198.252C152 190.826 154.95 183.704 160.201 178.453C165.452 173.202 172.574 170.252 180 170.252H184V226.252Z" fill="#F6BB92"/>
<path d="M345.526 122.253L354.458 95.4531C356.465 89.4309 356.367 82.9055 354.178 76.9467C351.99 70.988 347.842 65.9497 342.414 62.6581L297.789 35.6001C285.206 27.9684 270.761 23.9557 256.045 24.0033C241.328 24.051 226.91 28.1571 214.376 35.8701L170.91 62.6161C165.53 65.9265 161.428 70.9588 159.27 76.8952C157.111 82.8317 157.024 89.3235 159.021 95.3161L168 122.253" fill="#5B89B9"/>
<path d="M256 106.253L176 170.253L183.347 287.806C183.551 291.07 184.48 294.247 186.066 297.106C187.652 299.966 189.856 302.436 192.517 304.336L234.263 334.155C237.994 336.821 242.465 338.255 247.05 338.255H264.95C269.535 338.255 274.006 336.821 277.737 334.155L319.483 304.336C322.144 302.436 324.348 299.966 325.934 297.106C327.52 294.247 328.449 291.07 328.653 287.806L336 170.253L256 106.253Z" fill="#FDC9A6"/>
<path d="M280 306.25C280 308.372 279.157 310.407 277.657 311.907C276.157 313.407 274.122 314.25 272 314.25H264V338.25H248V314.25H240C237.878 314.25 235.843 313.407 234.343 311.907C232.843 310.407 232 308.372 232 306.25C232 304.128 232.843 302.093 234.343 300.593C235.843 299.093 237.878 298.25 240 298.25H272C274.122 298.25 276.157 299.093 277.657 300.593C279.157 302.093 280 304.128 280 306.25Z" fill="#FDC9A6"/>
<path d="M212.948 220.253C220.128 220.253 225.948 214.433 225.948 207.253C225.948 200.073 220.128 194.253 212.948 194.253C205.769 194.253 199.948 200.073 199.948 207.253C199.948 214.433 205.769 220.253 212.948 220.253Z" fill="#7A4922"/>
<path d="M292.948 220.253C300.128 220.253 305.948 214.433 305.948 207.253C305.948 200.073 300.128 194.253 292.948 194.253C285.769 194.253 279.948 200.073 279.948 207.253C279.948 214.433 285.769 220.253 292.948 220.253Z" fill="#7A4922"/>
<path d="M216 274.252C214.418 274.252 212.872 273.783 211.556 272.904C210.241 272.025 209.216 270.775 208.61 269.314C208.005 267.852 207.846 266.244 208.155 264.692C208.463 263.14 209.225 261.715 210.343 260.596L226.343 244.596C227.847 243.111 229.877 242.281 231.99 242.287C234.103 242.293 236.128 243.135 237.623 244.63C239.117 246.124 239.959 248.149 239.966 250.262C239.972 252.376 239.142 254.406 237.657 255.909L221.657 271.909C220.915 272.653 220.033 273.243 219.063 273.645C218.092 274.047 217.051 274.253 216 274.252Z" fill="#7A4922"/>
<path d="M288 274.252C286.95 274.253 285.909 274.047 284.938 273.645C283.967 273.243 283.086 272.653 282.343 271.909L266.343 255.909C265.577 255.172 264.965 254.289 264.543 253.312C264.122 252.335 263.899 251.284 263.889 250.22C263.879 249.156 264.081 248.101 264.483 247.116C264.886 246.131 265.481 245.237 266.233 244.485C266.986 243.733 267.88 243.138 268.865 242.736C269.85 242.334 270.906 242.132 271.969 242.143C273.033 242.154 274.084 242.377 275.061 242.799C276.038 243.221 276.92 243.833 277.657 244.6L293.657 260.6C294.775 261.719 295.535 263.144 295.843 264.695C296.15 266.246 295.992 267.854 295.386 269.315C294.781 270.775 293.756 272.024 292.442 272.903C291.127 273.782 289.582 274.251 288 274.252Z" fill="#7A4922"/>
<path d="M264 290.252H240C237.878 290.252 235.843 289.409 234.343 287.909C232.843 286.408 232 284.374 232 282.252C232 280.13 232.843 278.095 234.343 276.595C235.843 275.095 237.878 274.252 240 274.252H264C266.122 274.252 268.157 275.095 269.657 276.595C271.157 278.095 272 280.13 272 282.252C272 284.374 271.157 286.408 269.657 287.909C268.157 289.409 266.122 290.252 264 290.252Z" fill="#7A4922"/>
<path d="M256 266.252C251.992 266.252 248.04 265.299 244.472 263.472C240.904 261.645 237.821 258.997 235.477 255.745C233.134 252.493 231.596 248.73 230.992 244.768C230.387 240.805 230.733 236.755 232 232.952L240.411 207.72C240.734 206.712 241.254 205.778 241.94 204.973C242.627 204.167 243.466 203.506 244.41 203.027C245.354 202.548 246.384 202.261 247.439 202.183C248.495 202.105 249.555 202.237 250.559 202.572C251.564 202.906 252.491 203.437 253.289 204.133C254.086 204.828 254.738 205.676 255.206 206.625C255.674 207.574 255.949 208.607 256.014 209.664C256.08 210.72 255.936 211.779 255.589 212.779L247.179 238.011C246.713 239.409 246.586 240.898 246.808 242.354C247.03 243.811 247.595 245.194 248.457 246.389C249.318 247.585 250.452 248.558 251.763 249.23C253.075 249.902 254.527 250.252 256 250.252C258.122 250.252 260.157 251.095 261.657 252.595C263.157 254.096 264 256.13 264 258.252C264 260.374 263.157 262.409 261.657 263.909C260.157 265.409 258.122 266.252 256 266.252Z" fill="#7A4922"/>
<path d="M280 306.25C280 308.372 279.157 310.407 277.657 311.907C276.157 313.407 274.122 314.25 272 314.25H264V338.25H248V314.25H240C237.878 314.25 235.843 313.407 234.343 311.907C232.843 310.407 232 308.372 232 306.25C232 304.128 232.843 302.093 234.343 300.593C235.843 299.093 237.878 298.25 240 298.25H272C274.122 298.25 276.157 299.093 277.657 300.593C279.157 302.093 280 304.128 280 306.25Z" fill="#7A4922"/>
<path d="M304 186.252H280C277.878 186.252 275.843 185.409 274.343 183.909C272.843 182.409 272 180.374 272 178.252C272 176.13 272.843 174.095 274.343 172.595C275.843 171.095 277.878 170.252 280 170.252H304C306.122 170.252 308.157 171.095 309.657 172.595C311.157 174.095 312 176.13 312 178.252C312 180.374 311.157 182.409 309.657 183.909C308.157 185.409 306.122 186.252 304 186.252Z" fill="#7A4922"/>
<path d="M224 186.252H200C197.878 186.252 195.843 185.409 194.343 183.909C192.843 182.409 192 180.374 192 178.252C192 176.13 192.843 174.095 194.343 172.595C195.843 171.095 197.878 170.252 200 170.252H224C226.122 170.252 228.157 171.095 229.657 172.595C231.157 174.095 232 176.13 232 178.252C232 180.374 231.157 182.409 229.657 183.909C228.157 185.409 226.122 186.252 224 186.252Z" fill="#7A4922"/>
<path d="M256 440L240 464H208L224 488H288L304 464H272L256 440Z" fill="#EE9D0D"/>
<path d="M168 488V464C168 461.878 168.843 459.843 170.343 458.343C171.843 456.843 173.878 456 176 456C178.122 456 180.157 456.843 181.657 458.343C183.157 459.843 184 461.878 184 464V488H168Z" fill="#CB2527"/>
<path d="M328 488V464C328 461.878 328.843 459.843 330.343 458.343C331.843 456.843 333.878 456 336 456C338.122 456 340.157 456.843 341.657 458.343C343.157 459.843 344 461.878 344 464V488H328Z" fill="#CB2527"/>
<path d="M256 96C269.255 96 280 85.2548 280 72C280 58.7452 269.255 48 256 48C242.745 48 232 58.7452 232 72C232 85.2548 242.745 96 256 96Z" fill="#DCDBD6"/>
<path d="M209.324 94.976L160.424 125.07C158.182 126.45 156.574 128.658 155.95 131.216C155.326 133.774 155.736 136.474 157.09 138.732L166.495 154.406C169.395 159.239 173.497 163.239 178.402 166.016C183.307 168.793 188.847 170.253 194.483 170.253V170.253C198.77 170.253 203.014 169.409 206.974 167.768C210.934 166.128 214.532 163.724 217.563 160.693V160.693C222.611 155.645 228.604 151.641 235.2 148.909C241.795 146.177 248.864 144.771 256.003 144.771C263.142 144.771 270.211 146.177 276.807 148.909C283.402 151.641 289.395 155.645 294.443 160.693C297.474 163.724 301.072 166.128 305.033 167.768C308.993 169.409 313.237 170.253 317.523 170.253C323.16 170.253 328.7 168.793 333.605 166.016C338.509 163.239 342.611 159.239 345.511 154.406L354.916 138.732C356.271 136.474 356.681 133.774 356.057 131.216C355.432 128.658 353.825 126.45 351.582 125.07L302.682 94.976C288.645 86.337 272.486 81.7629 256.003 81.7629C239.521 81.7629 223.362 86.337 209.324 94.976V94.976Z" fill="#6699CE"/>
</svg>
