<?xml version="1.0" encoding="utf-8"?>
<!-- Generator: Adobe Illustrator 23.0.3, SVG Export Plug-In . SVG Version: 6.00 Build 0)  -->
<svg version="1.1" id="Layer_1" xmlns="http://www.w3.org/2000/svg" xmlns:xlink="http://www.w3.org/1999/xlink" x="0px" y="0px"
	 viewBox="0 0 180.7 180.7" style="enable-background:new 0 0 180.7 180.7;" xml:space="preserve">
<style type="text/css">
	.st0{fill:url(#SVGID_1_);}
	.st1{fill:url(#SVGID_2_);}
	.st2{fill:url(#SVGID_3_);}
	.st3{fill:url(#SVGID_4_);}
	.st4{fill:url(#SVGID_5_);}
	.st5{fill:url(#SVGID_6_);}
	.st6{fill:url(#SVGID_7_);}
	.st7{fill:url(#SVGID_8_);}
	.st8{fill:url(#SVGID_9_);}
	.st9{fill:url(#SVGID_10_);}
	.st10{fill:url(#SVGID_11_);}
	.st11{fill:url(#SVGID_12_);}
	.st12{fill:url(#SVGID_13_);}
	.st13{fill:url(#SVGID_14_);}
	.st14{fill:url(#SVGID_15_);}
	.st15{fill:url(#SVGID_16_);}
	.st16{fill:url(#SVGID_17_);}
	.st17{fill:url(#SVGID_18_);}
	.st18{fill:url(#SVGID_19_);}
	.st19{fill:url(#SVGID_20_);}
	.st20{fill:url(#SVGID_21_);}
	.st21{fill:url(#SVGID_22_);}
	.st22{fill:url(#SVGID_23_);}
	.st23{fill:url(#SVGID_24_);}
	.st24{fill:#8EC641;}
	.st25{fill:#121412;}
	.st26{fill:#2B3481;}
	.st27{fill:#27AAE2;}
	.st28{fill:#F2652F;}
	.st29{fill:#FEC611;}
	.st30{fill:#B61F26;}
	.st31{fill:#6F5197;}
	.st32{fill:#D6DF24;}
	.st33{fill:#C31A81;}
	.st34{fill:#E97915;}
	.st35{fill:#333333;}
	.st36{fill:#FBC906;}
	.st37{fill:#FBCA04;}
	.st38{fill:#E7780F;}
	.st39{fill:#EA770D;}
	.st40{fill:#FFA044;}
	.st41{fill:#E47813;}
	.st42{fill:#EB760D;}
	.st43{fill:#E10001;}
</style>
<g>
	<g>
		<g>
			<path class="st30" d="M126,82.1c-3.5-2.3-6.4-5.3-9.5-8c-1.7-1.5-3.3-3-5-4.5c-2.9-2.4-3-2.5-6.2,0c-6.7,5.2-14.2,9.2-21.9,12.7
				c-7.9,3.6-16.1,5.1-24.7,4.3c-5.2-0.5-8.6,1.8-10.4,6.6c-1.6,4.2,0.3,10,4.1,12.6c1.2,0.8,2.6,1.4,4,1.8c1.7,0.5,2.6,1.5,2.8,3.1
				c1.2,8.7,5.8,15.8,10.7,22.7c4.2,5.8,9.7,10.1,16.5,12.3c7.5,2.5,14.8,1.5,21.6-2.5c8.7-5.2,14.5-12.8,18.4-21.9
				c1.4-3.2,2.3-6.6,3.3-9.9c0.6-2.1,1.5-3.2,3.7-4.1c6.5-2.6,8.9-8.9,6.4-15.3c-0.4-0.9-0.8-2-1.6-2.5c-3.2-2.1-2.8-4.9-2-8
				c1.4-5.8,2.4-11.7,2.4-17.7c0-3.3-0.4-6.5-1.3-9.6c-2.7-8.9-9.5-14-18.8-14.1c-1.5,0-3.1-0.1-4.4,0.4c-4.7,1.9-8.7,0.5-12.6-1.9
				c-4.6-2.7-9.6-4-14.8-5c-10-2.1-23.7,1-32.1,14.2c-2,3.1-4.1,6.2-5.2,9.8c-1.3,4-2.9,4.3-6.8,2c-0.2-0.1-0.4-0.3-0.6-0.4
				c-4.8-3.1-5.7-3-2.6-9.2c3.6-7.2,7.9-13.8,14-19.1C62,23.6,72,20.5,83.1,21.2c7.5,0.5,14.9,2.1,21.6,5.5c3.1,1.5,6,1.9,9.3,1.7
				c5.7-0.4,11.3-0.3,16.9,1.9c11.3,4.6,17,13.3,19.3,24.7c1.5,7.4,1.2,14.9-0.5,22.2c-0.8,3.1-0.6,5.6,1,8.5
				c5.8,10.4,3,22.9-6.6,29.9c-2.4,1.7-3.7,3.7-4.6,6.4c-3.7,11.1-10,20.6-19.1,28c-8,6.4-17.1,10.1-27.5,9.7
				c-6.9-0.3-13.2-2.7-19-6.2c-9.4-5.6-16.3-13.7-21-23.6c-0.6-1.3-1.3-2.7-1.8-4.1c-1.6-4.7-4.1-8.7-8.1-12.1
				c-7.7-6.5-9.7-19.3-4.1-28.7c1.6-2.7,1.4-2.9-1.5-4.4c-1.1-0.6-2.2-1.1-3.3-1.7c-10.1-5.3-7.9-4.1-2.1-11.5
				c1.7-2.1,2.4-2.1,5.2-0.8c3.8,1.8,7.6,3.8,11.5,5.3c5.1,1.9,10.6,3.4,16,2.7c5.9-0.7,11.7-2.3,17.2-4.8
				c7.8-3.6,14.5-8.6,20.9-14.2c1.5-1.3,2.9-2.7,4.4-4c1.1-0.9,2.3-0.8,3.4,0.1c0.4,0.3,0.8,0.6,1.1,1c5,4.8,9.9,9.8,15.1,14.4
				c2.4,2.1,3.2,4.5,2.1,7.3C128,76.8,128.6,79.9,126,82.1z"/>
			<path class="st30" d="M71,102c0.1-4.9,3.7-8.2,8.7-8c4.9,0.2,8.3,3.9,8.1,8.7c-0.2,4.3-3.8,7.7-8.4,7.8
				C74.7,110.6,70.9,106.7,71,102z"/>
			<path class="st30" d="M118.2,102.4c-0.3,5.8-4.5,7.9-8.9,7.9c-4,0-8-4.5-7.9-8.4c0.2-4.3,3.9-7.8,8.3-8
				C114.5,93.8,118.3,97.6,118.2,102.4z"/>
		</g>
	</g>
</g>
</svg>
