<?xml version="1.0" encoding="iso-8859-1"?>
<!-- Generator: Adobe Illustrator 19.1.0, SVG Export Plug-In . SVG Version: 6.00 Build 0)  -->
<svg version="1.1" id="Capa_1" xmlns="http://www.w3.org/2000/svg" xmlns:xlink="http://www.w3.org/1999/xlink" x="0px" y="0px"
	 viewBox="0 0 488.02 488.02" style="enable-background:new 0 0 488.02 488.02;" xml:space="preserve">
<g>
	<path d="M265.374,0c-28.5,0-55.5,6.4-79.6,17.8c-63.7,29.6-107.8,94-107.8,168.8l0,0v24.9v6l-38,72.5c-9.6,18.3-0.5,33.3,20.1,33.3
		h17.9v0.4v31.6v36.9c0,21.5,17.6,39.2,39.2,39.2l53.8-8l0.1,53.8v0.4l0,0c0.3,6.9,6.1,11.5,13.3,10.2l193.8-34.3
		c7.3-1.3,13.3-8.4,13.3-15.8v-8.5v-6.8v-98.6c37.1-34.1,60.4-83,60.4-137.4C451.774,83.4,368.274,0,265.374,0z M306.074,170.3
		c-18.8,32.6-37.6,65.2-56.5,97.8c-0.1,0.1-0.2,0.2-0.2,0.4c-1.3,2.4-2.8,4.7-6,3.5c-3.3-1.2-2.5-4.1-2.1-6.6
		c1.5-8.2,3-16.4,4.6-24.6c2.7-14.4,5.5-28.8,8.2-43.2c0.2-1.2,0.3-2.5,0.5-4.2c-1.8-0.1-3.3-0.2-4.8-0.2c-10.6,0-21.3,0.1-31.9,0.1
		c-6.3,0-7.7-2.6-4.6-8.1c18.8-32.6,37.6-65.2,56.5-97.8c0.1-0.1,0.2-0.2,0.2-0.4c1.3-2.4,2.8-4.7,6-3.5c3.3,1.2,2.5,4.1,2.1,6.6
		c-1.5,8.2-3,16.4-4.6,24.6c-2.7,14.4-5.5,28.8-8.2,43.2c-0.2,1.2-0.3,2.5-0.5,4.2c1.8,0.1,3.3,0.2,4.8,0.2
		c10.6,0,21.3-0.1,31.9-0.1C307.774,162.2,309.274,164.8,306.074,170.3z"/>
</g>
<g>
</g>
<g>
</g>
<g>
</g>
<g>
</g>
<g>
</g>
<g>
</g>
<g>
</g>
<g>
</g>
<g>
</g>
<g>
</g>
<g>
</g>
<g>
</g>
<g>
</g>
<g>
</g>
<g>
</g>
</svg>
